<svg id="Layer_2" data-name="Layer 2" xmlns="http://www.w3.org/2000/svg" viewBox="0 0 1000 319.96">
	<defs>
		<style>
			.cls-1 {
				fill: #6C0020;
			}
			.cls-2 {
				fill: #C63D5B;
			}
		</style>
	</defs>
	<g id="Layer_1-2" data-name="Layer 1">
		<g>
			<g>
				<path class="cls-1" d="M0,215.39v-2.56h4.61c8.55,0,14.15-4.84,14.15-12.23V28.17c0-7.11-5.59-11.95-14.15-11.95H0v-2.85h83.25c46.4,0,84.9,31.01,84.9,100.44,0,63.17-31.92,101.58-84.9,101.58H0ZM67.46,212.83c48.7,0,75.68-38.41,75.68-97.31S115.5,16.22,67.46,16.22h-24.02v196.61h24.02Z"/>
				<path class="cls-1" d="M338.93,169.3c-22.71,25.89-43.76,48.65-86.87,48.65-58.24,0-83.91-41.54-83.91-80.81,0-44.39,32.25-85.64,82.26-85.64,44.09,0,76.01,32.72,77.99,81.38v2.85h-135.24c.99,34.71,19.41,71.7,68.77,71.7,30.6,0,53.64-14.51,75.03-39.83l1.97,1.71ZM303.72,132.88c0-46.95-20.4-79.1-52.32-79.1-36.53,0-58.24,40.69-58.24,79.1h110.56ZM243.5,37.84h-6.25L252.72,0h13.16l-22.38,37.84Z"/>
				<path class="cls-1" d="M505.43,13.37l70.42,187.22c2.63,7.4,9.87,12.23,18.43,12.23h4.61l.33,2.56h-63.51l-.33-2.56h4.61c8.55,0,12.5-4.84,9.54-12.23l-19.41-52.07h-76.01l-20.07,52.07c-2.63,7.4,1.32,12.23,9.87,12.23h4.61l-.33,2.56h-40.47l.33-2.56h4.61c8.56,0,15.47-4.84,18.43-12.23L502.47,13.37h2.96ZM529.12,145.96l-36.85-98.16-37.18,98.16h74.04Z"/>
				<path class="cls-1" d="M644.29,212.83v2.56h-62.19v-2.56h4.61c8.56,0,14.15-4.84,14.15-12.23V71.13c0-7.4-5.59-8.54-14.15-7.4l-4.61.85v-2.56l40.47-8.25h2.96v44.39c5.92-25.89,22.05-44.39,64.17-44.39,7.24,0,11.85.57,22.05,1.99v24.47c-16.45-5.98-31.26-10.81-45.41-10.81-31.59,0-40.8,25.04-40.8,66.58v64.59c0,7.4,5.59,12.23,14.15,12.23h4.61Z"/>
				<path class="cls-1" d="M839.42,169.3c-22.71,25.89-43.76,48.65-75.36,48.65-38.83,0-42.45-33.57-42.45-72.84V56.62h-18.1v-2.85h18.1c15.79,0,20.73-11.95,20.73-29.59h4.28v29.59h52.65v2.85h-52.65v76.54c0,35.28.33,74.26,29.29,74.26,17.11,0,40.14-14.51,61.53-39.83l1.98,1.71Z"/>
				<path class="cls-1" d="M1000,169.3c-22.71,25.89-43.76,48.65-86.87,48.65-58.24,0-83.91-41.54-83.91-80.81,0-44.39,32.25-85.64,82.26-85.64,44.09,0,76.01,32.72,77.99,81.38v2.85h-135.24c.99,34.71,19.41,71.7,68.77,71.7,30.6,0,53.64-14.51,75.03-39.83l1.97,1.71ZM964.79,132.88c0-46.95-20.4-79.1-52.32-79.1-36.53,0-58.24,40.69-58.24,79.1h110.56ZM904.57,37.84h-6.25l15.47-37.84h13.16l-22.38,37.84Z"/>
			</g>
			<g>
				<path class="cls-2" d="M412.05,303.31c3.65,11.85,16.5,15.99,24.69,15.99,12.98,0,15.62-10.32,15.62-25.37v-22.46c0-1.82-2.14-3.05-5.42-3.05h-1.76v-.73h23.81v.73h-1.76c-3.15,0-5.29,1.24-5.29,3.05v22.9c0,16.43-6.55,25.59-24.94,25.59-9.82,0-21.29-2.54-29.35-7.27l4.41-9.38Z"/>
				<path class="cls-2" d="M522.53,293.86v24.79h23.68c10.08,0,17.89-3.85,19.15-9.67l.13-.65h1.26l-2.39,10.98h-58.45v-.65h1.76c3.28,0,5.42-1.24,5.42-3.13v-44.05c0-1.82-2.14-3.05-5.42-3.05h-1.76v-.73h56.06l2.39,11.05h-1.26l-.13-.73c-1.26-5.74-9.07-9.6-19.15-9.6h-21.29v24.72h14.74c6.17,0,10.33-2.4,10.33-5.96v-.87h1.26v14.47h-1.26v-.94c0-3.56-4.16-5.96-10.33-5.96h-14.74Z"/>
				<path class="cls-2" d="M630.37,319.3l-21.04-47.83c-.88-1.82-3.78-3.05-7.05-3.05h-1.76v-.73h24.19v.73h-1.76c-3.28,0-4.54,1.24-3.65,3.05l16,36.71,15.12-34.02-1.13-2.69c-.88-1.82-3.78-3.05-7.05-3.05h-1.76v-.73h24.19v.73h-1.76c-3.28,0-4.54,1.24-3.65,3.05l16,36.71,16.38-36.71c.88-1.82-.51-3.05-3.65-3.05h-1.89v-.73h15.5v.73h-1.76c-3.15,0-6.17,1.24-7.05,3.05l-21.29,47.83h-1.13l-19.27-43.76-19.53,43.76h-1.13Z"/>
				<path class="cls-2" d="M752.32,293.86v24.79h23.68c10.08,0,17.89-3.85,19.15-9.67l.13-.65h1.26l-2.39,10.98h-58.45v-.65h1.76c3.28,0,5.42-1.24,5.42-3.13v-44.05c0-1.82-2.14-3.05-5.42-3.05h-1.76v-.73h56.06l2.39,11.05h-1.26l-.13-.73c-1.26-5.74-9.07-9.6-19.15-9.6h-21.29v24.72h14.74c6.17,0,10.33-2.4,10.33-5.96v-.87h1.26v14.47h-1.26v-.94c0-3.56-4.16-5.96-10.33-5.96h-14.74Z"/>
				<path class="cls-2" d="M856.01,268.42c-3.27,0-5.42,1.24-5.42,3.05v47.18h23.68c10.08,0,17.89-3.85,19.15-9.67l.13-.65h1.26l-2.39,10.98h-58.45v-.65h1.76c3.27,0,5.42-1.24,5.42-3.13v-44.05c0-1.82-2.14-3.05-5.42-3.05h-1.76v-.73h23.81v.73h-1.76Z"/>
				<path class="cls-2" d="M933.24,280.63c0-8.14,12.35-13.59,26.96-13.59,10.08,0,19.15,2.62,27.21,7.27l-4.41,9.45c-3.65-11.92-13.98-16.07-23.31-16.07-10.08,0-17.76,5.02-17.76,10.69,0,14.25,47.87,11.78,47.87,27.84,0,8.21-12.47,13.74-29.48,13.74-11.09,0-20.91-2.33-29.48-7.27l4.41-9.38c3.02,9.67,12.72,15.99,26.58,15.99,11.97,0,19.27-4.65,19.27-10.61,0-14.98-47.87-11.92-47.87-28.06Z"/>
			</g>
		</g>
	</g>
</svg>